<?xml version="1.0" standalone="no"?><!DOCTYPE svg PUBLIC "-//W3C//DTD SVG 1.1//EN" "http://www.w3.org/Graphics/SVG/1.1/DTD/svg11.dtd"><svg class="icon" width="200px" height="200px" viewBox="0 0 1100 1024" version="1.1" xmlns="http://www.w3.org/2000/svg"><path d="M344 291.9v435.4H179.2c-45.4 0-82.3-32.8-82.3-71.8V363.8c0-39.8 36.5-71.8 82.3-71.8H344z m0 0M546.9 117.7C579 93.6 605 107.2 605 146.9v725.4c0 40.2-25.7 53.4-58.1 29.2L314.6 727.3V291.9l232.3-174.2z m0 0M646 675.9c-6.8 0-12.9-4.6-14.6-11.5-1.9-8.1 3.1-16.1 11.1-18.1C701.7 632.2 743 577.1 743 512.1c0-63.6-38.5-117.1-95.9-133-8-2.2-12.7-10.5-10.4-18.5 2.2-8 10.5-12.7 18.5-10.4 34.5 9.6 64 30.2 85.4 59.5 21.3 29.3 32.5 64.6 32.5 102.4 0 38.8-11.8 75-34.2 104.6-22.5 29.9-53.4 50.2-89.4 58.7-1.2 0.4-2.3 0.5-3.5 0.5zM725.2 756.6c-6.8 0-12.9-4.6-14.6-11.5-1.9-8.1 3.1-16.1 11.1-18.1 94.5-22.4 160.5-110.4 160.5-213.8 0-101.3-61.5-186.5-153.1-211.9-8-2.2-12.7-10.5-10.4-18.5 2.2-8 10.5-12.7 18.5-10.4 51.2 14.2 95 44.8 126.7 88.4 31.6 43.5 48.3 96.2 48.3 152.4 0 57.8-17.6 111.7-50.9 155.8-33.4 44.3-79.3 74.5-132.7 87.1-1 0.4-2.2 0.5-3.4 0.5z" /></svg>