<?xml version="1.0" standalone="no"?><!DOCTYPE svg PUBLIC "-//W3C//DTD SVG 1.1//EN" "http://www.w3.org/Graphics/SVG/1.1/DTD/svg11.dtd"><svg class="icon" width="200px" height="200.00px" viewBox="0 0 1024 1024" version="1.1" xmlns="http://www.w3.org/2000/svg"><path d="M512 691.433A180.13 180.13 0 1 0 332.8 512 179.665 179.665 0 0 0 512 691.433zM93.09 512a471.04 471.04 0 0 1 8.38-88.67 157.09 157.09 0 0 0 120.552-81.22 170.59 170.59 0 0 0 6.05-153.135A414.487 414.487 0 0 1 385.165 93.09a153.135 153.135 0 0 0 258.094 0 415.65 415.65 0 0 1 156.393 97.047 169.658 169.658 0 0 0 7.447 151.971 156.393 156.393 0 0 0 116.364 78.895 461.964 461.964 0 0 1-3.258 193.163 158.487 158.487 0 0 0-112.64 80.757 169.658 169.658 0 0 0-11.637 139.636 416.116 416.116 0 0 1-162.21 96.35 152.67 152.67 0 0 0-241.339 0 412.16 412.16 0 0 1-159.65-94.954 170.124 170.124 0 0 0-10.706-142.196 157.324 157.324 0 0 0-116.364-81.222A461.265 461.265 0 0 1 93.091 512z" /></svg>