<?xml version="1.0" standalone="no"?><!DOCTYPE svg PUBLIC "-//W3C//DTD SVG 1.1//EN" "http://www.w3.org/Graphics/SVG/1.1/DTD/svg11.dtd"><svg class="icon" width="200px" height="200.00px" viewBox="0 0 1024 1024" version="1.1" xmlns="http://www.w3.org/2000/svg"><path d="M968.704 312.32a38.4 38.4 0 0 0-51.2-20.48h-3.072l-142.336 76.8V283.136A124.928 124.928 0 0 0 652.288 153.6H171.52A124.928 124.928 0 0 0 51.2 283.136V716.8a125.44 125.44 0 0 0 120.32 130.048h480.768A125.44 125.44 0 0 0 772.608 716.8v-87.552l142.336 76.8a34.816 34.816 0 0 0 17.92 4.608A41.472 41.472 0 0 0 972.8 665.6V331.776a51.2 51.2 0 0 0-4.096-19.456z m-566.784 14.336h-220.16c-19.968 0-30.208-10.752-30.208-32.256s10.24-32.768 30.208-32.768h220.16c19.968 0 29.696 10.752 29.696 32.768s-9.728 32.256-29.696 32.256z" /></svg>