<?xml version="1.0" standalone="no"?><!DOCTYPE svg PUBLIC "-//W3C//DTD SVG 1.1//EN" "http://www.w3.org/Graphics/SVG/1.1/DTD/svg11.dtd"><svg class="icon" width="200px" height="200.00px" viewBox="0 0 1024 1024" version="1.1" xmlns="http://www.w3.org/2000/svg"><path d="M942.08 286.72c-25.031-25.031-54.613-36.409-88.747-36.409H744.107l-25.031-65.991c-6.827-15.929-18.205-29.582-34.134-40.96s-34.133-18.204-50.062-18.204H384.569c-18.205 0-34.133 6.826-50.062 18.204-15.93 11.378-27.307 25.031-34.134 40.96l-27.306 65.991H161.564c-34.133 0-63.715 11.378-88.746 36.409s-36.41 54.613-36.41 88.747v439.182c0 34.133 11.379 63.715 36.41 88.747s54.613 36.408 88.746 36.408h691.77c34.133 0 63.715-11.377 88.746-36.408s36.409-54.614 36.409-88.747V375.467c0-34.134-11.378-63.716-36.409-88.747zM507.449 794.169c-113.778 0-207.076-93.298-207.076-207.076s93.298-207.075 207.076-207.075 207.075 93.298 207.075 207.075S621.227 794.17 507.45 794.17zM507.449 450.56c-77.369 0-138.809 61.44-138.809 138.809s61.44 138.809 138.809 138.809 138.809-61.44 138.809-138.81c0-77.368-61.44-138.808-138.81-138.808z" /></svg>