<?xml version="1.0" standalone="no"?><!DOCTYPE svg PUBLIC "-//W3C//DTD SVG 1.1//EN" "http://www.w3.org/Graphics/SVG/1.1/DTD/svg11.dtd"><svg class="icon" width="200px" height="200.00px" viewBox="0 0 1024 1024" version="1.1" xmlns="http://www.w3.org/2000/svg"><path d="M845.312 277.504c-103.936-100.352-247.296-117.76-306.688-120.832V79.36c0-12.288-13.824-19.456-23.552-12.8L347.136 179.712a15.3088 15.3088 0 0 0 0 25.6l167.936 112.64c10.24 6.656 23.552-0.512 23.552-12.8v-87.04c52.736 3.072 177.152 19.456 264.192 103.424 63.488 61.44 95.744 148.48 95.744 258.048 0 16.896 13.824 30.72 30.72 30.72s30.72-13.824 30.72-30.72c0-126.976-38.4-228.864-114.688-302.08zM653.312 406.016H145.408c-45.056 0-81.408 36.352-81.408 81.408v390.656c0 45.056 36.352 81.408 81.408 81.408h507.904c45.056 0 81.408-36.352 81.408-81.408V487.936c0-45.056-36.352-81.92-81.408-81.92z" /></svg>