<?xml version="1.0" standalone="no"?><!DOCTYPE svg PUBLIC "-//W3C//DTD SVG 1.1//EN" "http://www.w3.org/Graphics/SVG/1.1/DTD/svg11.dtd"><svg class="icon" width="200px" height="200.00px" viewBox="0 0 1024 1024" version="1.1" xmlns="http://www.w3.org/2000/svg"><path d="M432 64H104a40 40 0 0 0-40 40v328a40 40 0 0 0 40 40h328a40 40 0 0 0 40-40V104a40 40 0 0 0-40-40z m-41.5 328.24h-248v-248h248z" fill="#fff" /><path d="M222.5 267.57q0 18.85 12.57 31.42c8.38 8.39 20.95 12.58 31.43 12.58q18.86 0 31.43-12.58c8.38-8.37 12.57-20.95 12.57-31.42q0-18.87-12.57-31.43c-8.38-8.38-21-12.57-31.43-12.57q-18.85 0-31.43 12.57c-8.38 6.29-12.57 18.85-12.57 31.43z m0 0M432 552H104a40 40 0 0 0-40 40v328a40 40 0 0 0 40 40h328a40 40 0 0 0 40-40V592a40 40 0 0 0-40-40z m-41.5 328.24h-248v-248h248z" fill="#fff" /><path d="M222.5 755.57q0 18.85 12.57 31.42c8.38 8.39 20.95 12.58 31.43 12.58q18.86 0 31.43-12.58c8.38-8.37 12.57-21 12.57-31.42q0-18.87-12.57-31.43c-8.38-8.38-21-12.57-31.43-12.57q-18.85 0-31.43 12.57c-8.38 6.29-12.57 18.85-12.57 31.43z m0 0M920 64H592a40 40 0 0 0-40 40v328a40 40 0 0 0 40 40h328a40 40 0 0 0 40-40V104a40 40 0 0 0-40-40z m-41.5 328.12h-248v-248h248z" fill="#fff" /><path d="M710.5 267.57q0 18.85 12.57 31.42c8.38 8.39 20.95 12.58 31.43 12.58q18.86 0 31.43-12.58c8.38-8.37 12.57-20.95 12.57-31.42q0-18.87-12.57-31.43c-8.38-8.38-21-12.57-31.43-12.57q-18.86 0-31.43 12.57c-8.38 6.29-12.57 18.85-12.57 31.43z m0 0M714.5 880.27h80V960h-80z" fill="#fff" /><path d="M920 552h-41.5v162h-84V552H592a40 40 0 0 0-40 40v328a40 40 0 0 0 40 40h38.5V712h84v84.27H960V592a40 40 0 0 0-40-40zM878.5 960H920a40 40 0 0 0 40-40v-39.73h-81.5z" fill="#fff" /></svg>