<?xml version="1.0" standalone="no"?><!DOCTYPE svg PUBLIC "-//W3C//DTD SVG 1.1//EN" "http://www.w3.org/Graphics/SVG/1.1/DTD/svg11.dtd"><svg class="icon" width="200px" height="200.00px" viewBox="0 0 1024 1024" version="1.1" xmlns="http://www.w3.org/2000/svg"><path d="M512 1024c-281.6 0-512-230.4-512-512s230.4-512 512-512 512 230.4 512 512-230.4 512-512 512z m0-73.142857c241.371429 0 438.857143-197.485714 438.857143-438.857143s-197.485714-438.857143-438.857143-438.857143-438.857143 197.485714-438.857143 438.857143 197.485714 438.857143 438.857143 438.857143z m36.571429-577.828572l91.428571 91.428572c14.628571 14.628571 36.571429 14.628571 51.2 0 14.628571-14.628571 14.628571-36.571429 0-51.2L563.2 285.257143c-29.257143-29.257143-73.142857-29.257143-102.4 0L332.8 413.257143c-14.628571 14.628571-14.628571 36.571429 0 51.2 14.628571 14.628571 36.571429 14.628571 51.2 0L475.428571 373.028571V731.428571c0 21.942857 14.628571 36.571429 36.571429 36.571429s36.571429-14.628571 36.571429-36.571429V373.028571z" fill="#00C9D9" /></svg>