<?xml version="1.0" standalone="no"?><!DOCTYPE svg PUBLIC "-//W3C//DTD SVG 1.1//EN" "http://www.w3.org/Graphics/SVG/1.1/DTD/svg11.dtd"><svg class="icon" width="200px" height="200.00px" viewBox="0 0 1024 1024" version="1.1" xmlns="http://www.w3.org/2000/svg"><path d="M813.313538 651.021225l-135.43292 135.227874-58.181818-58.028034c-5.484982-11.072487-27.681217-11.072487-38.651181 0a26.912295 26.912295 0 0 0 0 38.804966l77.456147 77.456148a26.75851 26.75851 0 0 0 19.376852 8.253103 27.014818 27.014818 0 0 0 19.376853-8.253103l154.861033-155.578695a27.527433 27.527433 0 0 0-38.804966-38.804966z m0 0" fill="#52C41A" /><path d="M716.480538 470.939527a276.350821 276.350821 0 1 0 195.613937 80.941931 276.504606 276.504606 0 0 0-195.613937-80.941931z m0 497.851823a221.295955 221.295955 0 1 1 221.347217-221.347217A221.295955 221.295955 0 0 1 716.480538 968.842611z m0 0" fill="#52C41A" /><path d="M450.689589 923.988787H159.114099a56.746496 56.746496 0 0 1-56.387666-56.746496V128.153785a56.797757 56.797757 0 0 1 56.387666-56.387666h570.796956a56.849019 56.849019 0 0 1 56.797757 56.387666v284.80897a35.88306 35.88306 0 0 0 71.509812 0V128.153785a128.461354 128.461354 0 0 0-128.153785-128.153785H159.114099a128.410092 128.410092 0 0 0-128.153785 128.153785v739.088506a128.461354 128.461354 0 0 0 128.153785 128.153784h291.57549a35.88306 35.88306 0 0 0 0-71.766119z m0 0" fill="#5CC727" /><path d="M245.489749 598.734481c6.76652 20.504606 20.504606 33.832599 40.599119 33.832599s33.832599-13.53304 40.599119-33.832599l27.219864-372.15859A67.818983 67.818983 0 0 0 286.088868 158.910693c-40.599119 0-67.665198 33.832599-67.665198 74.431718z m40.599119 101.497798c-40.599119 0-67.665198 27.066079-67.665198 67.665198s27.066079 67.665198 67.665198 67.665198 67.818983-27.066079 67.818983-67.665198-27.066079-67.665198-67.665198-67.665198z m0 0" fill="#5CC727" /></svg>