<?xml version="1.0" standalone="no"?><!DOCTYPE svg PUBLIC "-//W3C//DTD SVG 1.1//EN" "http://www.w3.org/Graphics/SVG/1.1/DTD/svg11.dtd"><svg class="icon" width="200px" height="200.00px" viewBox="0 0 1024 1024" version="1.1" xmlns="http://www.w3.org/2000/svg"><path d="M682.666667 345.429333L678.570667 341.333333a41.642667 41.642667 0 0 0-58.026667 0L512 449.194667 403.456 341.333333a41.642667 41.642667 0 0 0-58.026667 0L341.333333 345.429333a41.642667 41.642667 0 0 0 0 58.026667L449.194667 512 341.333333 620.544a41.642667 41.642667 0 0 0 0 58.026667l4.778667 4.778666a41.642667 41.642667 0 0 0 58.026667 0L512 574.805333 620.544 682.666667a41.642667 41.642667 0 0 0 58.026667 0l4.096-4.096a41.642667 41.642667 0 0 0 0-58.026667L574.805333 512 682.666667 403.456a41.642667 41.642667 0 0 0 0-58.026667z" fill="#FD5451" /><path d="M512 0A512 512 0 1 0 1024 512 512 512 0 0 0 512 0z m0 942.08a430.08 430.08 0 1 1 430.08-430.08 430.762667 430.762667 0 0 1-430.08 430.08z" fill="#FD5451" /></svg>