<?xml version="1.0" standalone="no"?><!DOCTYPE svg PUBLIC "-//W3C//DTD SVG 1.1//EN" "http://www.w3.org/Graphics/SVG/1.1/DTD/svg11.dtd"><svg class="icon" width="200px" height="200.00px" viewBox="0 0 1024 1024" version="1.1" xmlns="http://www.w3.org/2000/svg"><path d="M512 0C229.248 0 0 229.248 0 512s229.248 512 512 512 512-229.248 512-512S794.752 0 512 0z m0 937.152c-234.752 0-425.152-190.4-425.152-425.152C86.848 277.248 277.248 86.848 512 86.848c234.752 0 425.152 190.4 425.152 425.152 0 234.752-190.4 425.152-425.152 425.152z" fill="#F07400" /><path d="M452.576 256c20.16 0 36.576 16.384 36.576 36.544v256h256a36.576 36.576 0 0 1 0 73.152H416V292.544C416 272.352 432.384 256 452.576 256z" fill="#F07400" /></svg>